<svg width="174" height="34" viewBox="0 0 174 34" fill="none" xmlns="http://www.w3.org/2000/svg">
<path d="M0 0L15 6C15 6 10.4231 6.57689 8.5 8.5C6.57689 10.4231 6 15 6 15L0 0Z" fill="#FF5100"/>
<rect x="7.25" y="7.25" width="166.5" height="26.5" rx="13.25" fill="white" stroke="#C0C7BF" stroke-width="0.5"/>
<path d="M18.372 24.108C17.9 24.108 17.484 24.032 17.124 23.88C16.772 23.728 16.492 23.52 16.284 23.256C16.084 22.984 15.968 22.664 15.936 22.296H17.232C17.264 22.512 17.38 22.688 17.58 22.824C17.78 22.952 18.044 23.016 18.372 23.016H18.888C19.28 23.016 19.576 22.936 19.776 22.776C19.976 22.616 20.076 22.404 20.076 22.14C20.076 21.884 19.984 21.684 19.8 21.54C19.624 21.388 19.36 21.288 19.008 21.24L18.156 21.108C17.452 20.996 16.932 20.796 16.596 20.508C16.268 20.212 16.104 19.776 16.104 19.2C16.104 18.592 16.3 18.124 16.692 17.796C17.092 17.46 17.68 17.292 18.456 17.292H18.912C19.6 17.292 20.148 17.452 20.556 17.772C20.972 18.084 21.208 18.504 21.264 19.032H19.968C19.936 18.84 19.828 18.684 19.644 18.564C19.468 18.444 19.224 18.384 18.912 18.384H18.456C18.08 18.384 17.804 18.456 17.628 18.6C17.46 18.736 17.376 18.94 17.376 19.212C17.376 19.452 17.452 19.632 17.604 19.752C17.756 19.872 17.992 19.956 18.312 20.004L19.188 20.148C19.932 20.252 20.476 20.46 20.82 20.772C21.172 21.076 21.348 21.52 21.348 22.104C21.348 22.736 21.14 23.228 20.724 23.58C20.316 23.932 19.704 24.108 18.888 24.108H18.372ZM25.7953 24.12C25.2593 24.12 24.7873 24.016 24.3793 23.808C23.9793 23.592 23.6713 23.292 23.4553 22.908C23.2393 22.524 23.1313 22.076 23.1313 21.564V19.836C23.1313 19.316 23.2393 18.868 23.4553 18.492C23.6713 18.108 23.9793 17.812 24.3793 17.604C24.7873 17.388 25.2593 17.28 25.7953 17.28C26.3393 17.28 26.8113 17.388 27.2113 17.604C27.6113 17.812 27.9193 18.108 28.1353 18.492C28.3513 18.868 28.4593 19.316 28.4593 19.836V21.012H24.3793V21.564C24.3793 22.052 24.4993 22.424 24.7393 22.68C24.9873 22.936 25.3433 23.064 25.8073 23.064C26.1833 23.064 26.4873 23 26.7193 22.872C26.9513 22.736 27.0953 22.54 27.1513 22.284H28.4353C28.3393 22.844 28.0513 23.292 27.5713 23.628C27.0913 23.956 26.4993 24.12 25.7953 24.12ZM27.2113 20.232V19.824C27.2113 19.344 27.0913 18.972 26.8513 18.708C26.6113 18.444 26.2593 18.312 25.7953 18.312C25.3393 18.312 24.9873 18.444 24.7393 18.708C24.4993 18.972 24.3793 19.348 24.3793 19.836V20.136L27.3073 20.124L27.2113 20.232ZM30.3986 24V17.4H31.6826V18.66H31.9946L31.6826 18.96C31.6826 18.432 31.8386 18.02 32.1506 17.724C32.4626 17.428 32.8946 17.28 33.4466 17.28C34.1026 17.28 34.6266 17.492 35.0186 17.916C35.4106 18.332 35.6066 18.896 35.6066 19.608V24H34.3106V19.752C34.3106 19.32 34.1946 18.988 33.9626 18.756C33.7306 18.524 33.4146 18.408 33.0146 18.408C32.6066 18.408 32.2826 18.532 32.0426 18.78C31.8106 19.02 31.6946 19.372 31.6946 19.836V24H30.3986ZM37.5579 24V22.824H39.8739V18.576H37.8579V17.4H41.1339V22.824H43.2579V24H37.5579ZM40.3779 16.26C40.0979 16.26 39.8739 16.188 39.7059 16.044C39.5379 15.892 39.4539 15.692 39.4539 15.444C39.4539 15.188 39.5379 14.988 39.7059 14.844C39.8739 14.692 40.0979 14.616 40.3779 14.616C40.6579 14.616 40.8819 14.692 41.0499 14.844C41.2179 14.988 41.3019 15.188 41.3019 15.444C41.3019 15.692 41.2179 15.892 41.0499 16.044C40.8819 16.188 40.6579 16.26 40.3779 16.26ZM47.3813 24.108C46.8373 24.108 46.3653 24.004 45.9653 23.796C45.5653 23.588 45.2573 23.292 45.0413 22.908C44.8253 22.524 44.7173 22.072 44.7173 21.552V19.848C44.7173 19.32 44.8253 18.868 45.0413 18.492C45.2573 18.108 45.5653 17.812 45.9653 17.604C46.3653 17.396 46.8373 17.292 47.3813 17.292C47.9253 17.292 48.3973 17.396 48.7973 17.604C49.1973 17.812 49.5053 18.108 49.7213 18.492C49.9373 18.868 50.0453 19.32 50.0453 19.848V21.552C50.0453 22.072 49.9373 22.524 49.7213 22.908C49.5053 23.292 49.1973 23.588 48.7973 23.796C48.3973 24.004 47.9253 24.108 47.3813 24.108ZM47.3813 22.968C47.8213 22.968 48.1613 22.848 48.4013 22.608C48.6413 22.36 48.7613 22.008 48.7613 21.552V19.848C48.7613 19.384 48.6413 19.032 48.4013 18.792C48.1613 18.552 47.8213 18.432 47.3813 18.432C46.9493 18.432 46.6093 18.552 46.3613 18.792C46.1213 19.032 46.0013 19.384 46.0013 19.848V21.552C46.0013 22.008 46.1213 22.36 46.3613 22.608C46.6093 22.848 46.9493 22.968 47.3813 22.968ZM52.2006 24V17.4H53.4486V18.66H53.7606L53.3646 19.44C53.3646 18.728 53.5206 18.192 53.8326 17.832C54.1446 17.464 54.6086 17.28 55.2246 17.28C55.9286 17.28 56.4846 17.5 56.8926 17.94C57.3086 18.372 57.5166 18.968 57.5166 19.728V20.172H56.1846V19.836C56.1846 19.364 56.0646 19.004 55.8246 18.756C55.5926 18.5 55.2646 18.372 54.8406 18.372C54.4166 18.372 54.0846 18.5 53.8446 18.756C53.6126 19.012 53.4966 19.372 53.4966 19.836V24H52.2006ZM68.9672 24.12C68.4312 24.12 67.9592 24.016 67.5512 23.808C67.1512 23.592 66.8432 23.292 66.6272 22.908C66.4112 22.524 66.3032 22.076 66.3032 21.564V19.836C66.3032 19.316 66.4112 18.868 66.6272 18.492C66.8432 18.108 67.1512 17.812 67.5512 17.604C67.9592 17.388 68.4312 17.28 68.9672 17.28C69.5112 17.28 69.9832 17.388 70.3832 17.604C70.7832 17.812 71.0912 18.108 71.3072 18.492C71.5232 18.868 71.6312 19.316 71.6312 19.836V21.012H67.5512V21.564C67.5512 22.052 67.6712 22.424 67.9112 22.68C68.1592 22.936 68.5152 23.064 68.9792 23.064C69.3552 23.064 69.6592 23 69.8912 22.872C70.1232 22.736 70.2672 22.54 70.3232 22.284H71.6072C71.5112 22.844 71.2232 23.292 70.7432 23.628C70.2632 23.956 69.6712 24.12 68.9672 24.12ZM70.3832 20.232V19.824C70.3832 19.344 70.2632 18.972 70.0232 18.708C69.7832 18.444 69.4312 18.312 68.9672 18.312C68.5112 18.312 68.1592 18.444 67.9112 18.708C67.6712 18.972 67.5512 19.348 67.5512 19.836V20.136L70.4792 20.124L70.3832 20.232ZM73.5705 24V17.4H74.8545V18.66H75.1665L74.8545 18.96C74.8545 18.432 75.0105 18.02 75.3225 17.724C75.6345 17.428 76.0665 17.28 76.6185 17.28C77.2745 17.28 77.7985 17.492 78.1905 17.916C78.5825 18.332 78.7785 18.896 78.7785 19.608V24H77.4825V19.752C77.4825 19.32 77.3665 18.988 77.1345 18.756C76.9025 18.524 76.5865 18.408 76.1865 18.408C75.7785 18.408 75.4545 18.532 75.2145 18.78C74.9825 19.02 74.8665 19.372 74.8665 19.836V24H73.5705ZM81.6298 26.16V25.044H83.6578C83.9938 25.044 84.2418 24.964 84.4018 24.804C84.5698 24.644 84.6538 24.408 84.6538 24.096V23.436L84.6778 22.212H84.4018L84.6658 21.972C84.6658 22.476 84.5058 22.872 84.1858 23.16C83.8738 23.448 83.4498 23.592 82.9138 23.592C82.2338 23.592 81.6978 23.368 81.3058 22.92C80.9138 22.472 80.7178 21.868 80.7178 21.108V19.764C80.7178 19.004 80.9138 18.4 81.3058 17.952C81.6978 17.504 82.2338 17.28 82.9138 17.28C83.4498 17.28 83.8738 17.428 84.1858 17.724C84.5058 18.012 84.6658 18.408 84.6658 18.912L84.4018 18.66H84.6658L84.6538 17.4H85.9378V24.12C85.9378 24.752 85.7378 25.248 85.3378 25.608C84.9378 25.976 84.3818 26.16 83.6698 26.16H81.6298ZM83.3338 22.476C83.7418 22.476 84.0618 22.352 84.2938 22.104C84.5338 21.848 84.6538 21.496 84.6538 21.048V19.836C84.6538 19.388 84.5338 19.04 84.2938 18.792C84.0618 18.536 83.7418 18.408 83.3338 18.408C82.9098 18.408 82.5818 18.532 82.3498 18.78C82.1258 19.02 82.0138 19.372 82.0138 19.836V21.048C82.0138 21.504 82.1258 21.856 82.3498 22.104C82.5818 22.352 82.9098 22.476 83.3338 22.476ZM87.9251 24V22.824H90.2411V18.576H88.2251V17.4H91.5011V22.824H93.6251V24H87.9251ZM90.7451 16.26C90.4651 16.26 90.2411 16.188 90.0731 16.044C89.9051 15.892 89.8211 15.692 89.8211 15.444C89.8211 15.188 89.9051 14.988 90.0731 14.844C90.2411 14.692 90.4651 14.616 90.7451 14.616C91.0251 14.616 91.2491 14.692 91.4171 14.844C91.5851 14.988 91.6691 15.188 91.6691 15.444C91.6691 15.692 91.5851 15.892 91.4171 16.044C91.2491 16.188 91.0251 16.26 90.7451 16.26ZM95.1564 24V17.4H96.4404V18.66H96.7524L96.4404 18.96C96.4404 18.432 96.5964 18.02 96.9084 17.724C97.2204 17.428 97.6524 17.28 98.2044 17.28C98.8604 17.28 99.3844 17.492 99.7764 17.916C100.168 18.332 100.364 18.896 100.364 19.608V24H99.0684V19.752C99.0684 19.32 98.9524 18.988 98.7204 18.756C98.4884 18.524 98.1724 18.408 97.7724 18.408C97.3644 18.408 97.0404 18.532 96.8004 18.78C96.5684 19.02 96.4524 19.372 96.4524 19.836V24H95.1564ZM104.944 24.12C104.408 24.12 103.936 24.016 103.528 23.808C103.128 23.592 102.82 23.292 102.604 22.908C102.388 22.524 102.28 22.076 102.28 21.564V19.836C102.28 19.316 102.388 18.868 102.604 18.492C102.82 18.108 103.128 17.812 103.528 17.604C103.936 17.388 104.408 17.28 104.944 17.28C105.488 17.28 105.96 17.388 106.36 17.604C106.76 17.812 107.068 18.108 107.284 18.492C107.5 18.868 107.608 19.316 107.608 19.836V21.012H103.528V21.564C103.528 22.052 103.648 22.424 103.888 22.68C104.136 22.936 104.492 23.064 104.956 23.064C105.332 23.064 105.636 23 105.868 22.872C106.1 22.736 106.244 22.54 106.3 22.284H107.584C107.488 22.844 107.2 23.292 106.72 23.628C106.24 23.956 105.648 24.12 104.944 24.12ZM106.36 20.232V19.824C106.36 19.344 106.24 18.972 106 18.708C105.76 18.444 105.408 18.312 104.944 18.312C104.488 18.312 104.136 18.444 103.888 18.708C103.648 18.972 103.528 19.348 103.528 19.836V20.136L106.456 20.124L106.36 20.232ZM112.139 24.12C111.603 24.12 111.131 24.016 110.723 23.808C110.323 23.592 110.015 23.292 109.799 22.908C109.583 22.524 109.475 22.076 109.475 21.564V19.836C109.475 19.316 109.583 18.868 109.799 18.492C110.015 18.108 110.323 17.812 110.723 17.604C111.131 17.388 111.603 17.28 112.139 17.28C112.683 17.28 113.155 17.388 113.555 17.604C113.955 17.812 114.263 18.108 114.479 18.492C114.695 18.868 114.803 19.316 114.803 19.836V21.012H110.723V21.564C110.723 22.052 110.843 22.424 111.083 22.68C111.331 22.936 111.687 23.064 112.151 23.064C112.527 23.064 112.831 23 113.063 22.872C113.295 22.736 113.439 22.54 113.495 22.284H114.779C114.683 22.844 114.395 23.292 113.915 23.628C113.435 23.956 112.843 24.12 112.139 24.12ZM113.555 20.232V19.824C113.555 19.344 113.435 18.972 113.195 18.708C112.955 18.444 112.603 18.312 112.139 18.312C111.683 18.312 111.331 18.444 111.083 18.708C110.843 18.972 110.723 19.348 110.723 19.836V20.136L113.651 20.124L113.555 20.232ZM116.958 24V17.4H118.206V18.66H118.518L118.122 19.44C118.122 18.728 118.278 18.192 118.59 17.832C118.902 17.464 119.366 17.28 119.982 17.28C120.686 17.28 121.242 17.5 121.65 17.94C122.066 18.372 122.274 18.968 122.274 19.728V20.172H120.942V19.836C120.942 19.364 120.822 19.004 120.582 18.756C120.35 18.5 120.022 18.372 119.598 18.372C119.174 18.372 118.842 18.5 118.602 18.756C118.37 19.012 118.254 19.372 118.254 19.836V24H116.958ZM126.302 24.108C125.83 24.108 125.414 24.032 125.054 23.88C124.702 23.728 124.422 23.52 124.214 23.256C124.014 22.984 123.898 22.664 123.866 22.296H125.162C125.194 22.512 125.31 22.688 125.51 22.824C125.71 22.952 125.974 23.016 126.302 23.016H126.818C127.21 23.016 127.506 22.936 127.706 22.776C127.906 22.616 128.006 22.404 128.006 22.14C128.006 21.884 127.914 21.684 127.73 21.54C127.554 21.388 127.29 21.288 126.938 21.24L126.086 21.108C125.382 20.996 124.862 20.796 124.526 20.508C124.198 20.212 124.034 19.776 124.034 19.2C124.034 18.592 124.23 18.124 124.622 17.796C125.022 17.46 125.61 17.292 126.386 17.292H126.842C127.53 17.292 128.078 17.452 128.486 17.772C128.902 18.084 129.138 18.504 129.194 19.032H127.898C127.866 18.84 127.758 18.684 127.574 18.564C127.398 18.444 127.154 18.384 126.842 18.384H126.386C126.01 18.384 125.734 18.456 125.558 18.6C125.39 18.736 125.306 18.94 125.306 19.212C125.306 19.452 125.382 19.632 125.534 19.752C125.686 19.872 125.922 19.956 126.242 20.004L127.118 20.148C127.862 20.252 128.406 20.46 128.75 20.772C129.102 21.076 129.278 21.52 129.278 22.104C129.278 22.736 129.07 23.228 128.654 23.58C128.246 23.932 127.634 24.108 126.818 24.108H126.302ZM140.92 24.108C140.376 24.108 139.904 24.004 139.504 23.796C139.104 23.588 138.796 23.292 138.58 22.908C138.364 22.524 138.256 22.072 138.256 21.552V19.848C138.256 19.32 138.364 18.868 138.58 18.492C138.796 18.108 139.104 17.812 139.504 17.604C139.904 17.396 140.376 17.292 140.92 17.292C141.464 17.292 141.936 17.396 142.336 17.604C142.736 17.812 143.044 18.108 143.26 18.492C143.476 18.868 143.584 19.32 143.584 19.848V21.552C143.584 22.072 143.476 22.524 143.26 22.908C143.044 23.292 142.736 23.588 142.336 23.796C141.936 24.004 141.464 24.108 140.92 24.108ZM140.92 22.968C141.36 22.968 141.7 22.848 141.94 22.608C142.18 22.36 142.3 22.008 142.3 21.552V19.848C142.3 19.384 142.18 19.032 141.94 18.792C141.7 18.552 141.36 18.432 140.92 18.432C140.488 18.432 140.148 18.552 139.9 18.792C139.66 19.032 139.54 19.384 139.54 19.848V21.552C139.54 22.008 139.66 22.36 139.9 22.608C140.148 22.848 140.488 22.968 140.92 22.968ZM145.524 24V17.4H146.808V18.66H147.12L146.808 18.96C146.808 18.432 146.964 18.02 147.276 17.724C147.588 17.428 148.02 17.28 148.572 17.28C149.228 17.28 149.752 17.492 150.144 17.916C150.536 18.332 150.732 18.896 150.732 19.608V24H149.436V19.752C149.436 19.32 149.32 18.988 149.088 18.756C148.856 18.524 148.54 18.408 148.14 18.408C147.732 18.408 147.408 18.532 147.168 18.78C146.936 19.02 146.82 19.372 146.82 19.836V24H145.524ZM156.259 24C155.851 24 155.495 23.92 155.191 23.76C154.887 23.592 154.647 23.356 154.471 23.052C154.303 22.748 154.219 22.396 154.219 21.996V16.416H152.059V15.24H155.515V21.996C155.515 22.252 155.587 22.456 155.731 22.608C155.875 22.752 156.071 22.824 156.319 22.824H158.359V24H156.259ZM160.97 26.16L161.918 23.616L159.458 17.4H160.886L162.266 21.12C162.322 21.28 162.378 21.472 162.434 21.696C162.49 21.92 162.538 22.104 162.578 22.248C162.61 22.104 162.654 21.92 162.71 21.696C162.766 21.472 162.822 21.28 162.878 21.12L164.174 17.4H165.554L162.338 26.16H160.97Z" fill="#5B5B60"/>
</svg>
